<?xml version="1.0" standalone="no"?>
<!DOCTYPE svg PUBLIC "-//W3C//DTD SVG 20010904//EN"
 "http://www.w3.org/TR/2001/REC-SVG-20010904/DTD/svg10.dtd">
<svg version="1.0" xmlns="http://www.w3.org/2000/svg"
 width="1024.000000pt" height="1024.000000pt" viewBox="0 0 1024.000000 1024.000000"
 preserveAspectRatio="xMidYMid meet">

<g transform="translate(0.000000,1024.000000) scale(0.100000,-0.100000)"
fill="#000000" stroke="none">
<path d="M3195 8772 c-16 -11 -84 -77 -149 -148 -66 -71 -149 -160 -186 -199
-36 -38 -120 -128 -185 -200 -66 -71 -215 -231 -330 -355 -116 -124 -219 -236
-228 -250 -26 -37 -21 -77 12 -111 l29 -29 326 0 326 0 0 -2074 c0 -2259 -2
-2163 56 -2424 109 -489 386 -917 776 -1205 300 -221 648 -346 1088 -393 221
-23 738 -15 927 14 484 76 845 249 1165 560 275 268 454 579 553 966 75 292
69 100 72 2449 l3 2107 321 0 c224 0 327 3 342 12 33 17 46 39 47 79 0 46 -15
64 -485 564 -83 88 -206 221 -275 295 -191 208 -292 313 -324 337 -34 26 -84
30 -125 9 -15 -8 -189 -190 -387 -403 -197 -213 -430 -464 -516 -556 -87 -92
-165 -179 -174 -192 -26 -39 -21 -95 11 -122 26 -23 27 -23 351 -23 l324 0 -2
-2082 -3 -2083 -27 -101 c-62 -231 -146 -396 -286 -557 -194 -224 -441 -360
-762 -419 -165 -31 -532 -30 -700 0 -205 37 -378 106 -537 213 -230 156 -424
430 -504 714 -50 179 -49 116 -49 2288 l0 2027 321 0 c326 0 348 2 376 39 16
20 16 66 2 94 -7 12 -55 69 -109 127 -665 723 -946 1023 -970 1035 -39 20 -79
19 -115 -3z"/>
</g>
</svg>
